<?xml version="1.0" standalone="no"?>
<!DOCTYPE svg PUBLIC "-//W3C//DTD SVG 20010904//EN"
 "http://www.w3.org/TR/2001/REC-SVG-20010904/DTD/svg10.dtd">
<svg version="1.0" xmlns="http://www.w3.org/2000/svg"
 width="958.000000pt" height="250.000000pt" viewBox="0 0 958.000000 250.000000"
 preserveAspectRatio="xMidYMid meet">

<g transform="translate(0.000000,250.000000) scale(0.100000,-0.100000)"
fill="#288fef" stroke="none">
<path d="M1905 2300 c-142 -75 -280 -177 -448 -332 l-97 -90 -225 0 -225 0
-101 96 c-90 87 -320 269 -357 283 -8 4 -28 -9 -48 -31 -33 -36 -201 -125
-266 -141 -34 -9 -37 -23 -27 -146 18 -211 81 -470 158 -650 l40 -91 -25 -226
c-24 -226 -24 -275 1 -363 50 -176 194 -316 370 -360 28 -7 67 -24 88 -37 56
-37 116 -39 267 -7 l130 27 120 -26 c174 -38 206 -35 300 24 8 5 47 18 86 29
134 39 244 133 310 266 54 109 61 178 40 381 -33 312 -34 276 17 404 96 240
145 474 154 740 5 142 4 160 -15 202 -24 56 -58 80 -120 85 -41 4 -58 -1 -127
-37z m165 -60 c18 -18 20 -33 20 -149 0 -264 -52 -516 -161 -781 l-42 -104 22
-205 c12 -114 21 -231 21 -263 0 -152 -102 -314 -235 -377 -67 -31 -73 -29
-73 29 -2 160 -106 330 -261 424 -33 21 -61 42 -61 47 0 5 -9 18 -20 29 -18
18 -33 20 -140 20 -113 0 -122 -2 -144 -23 -13 -13 -25 -28 -27 -34 -2 -6 -21
-19 -41 -29 -63 -32 -164 -126 -197 -183 -43 -73 -70 -157 -79 -242 l-7 -69
-53 25 c-72 33 -165 124 -201 196 -53 106 -56 162 -28 426 l26 233 -31 67
c-75 165 -151 456 -164 625 l-7 83 85 43 c46 23 106 60 132 82 27 22 52 40 56
40 29 0 360 -275 360 -299 0 -4 -17 -13 -37 -19 -21 -7 -60 -24 -88 -40 -38
-21 -50 -33 -50 -51 0 -46 27 -48 112 -9 90 42 189 71 224 66 31 -4 38 -41 38
-210 1 -131 17 -198 48 -198 26 0 51 74 57 171 15 240 15 239 42 239 l24 0 -2
-183 c-2 -161 0 -187 15 -211 10 -15 23 -24 29 -20 21 13 46 91 52 164 7 83
35 220 48 234 12 14 97 -9 188 -50 66 -30 82 -34 95 -24 38 31 -4 77 -107 117
-24 9 -47 19 -51 23 -10 8 189 186 289 257 105 75 245 153 277 153 15 0 36 -9
47 -20z m-1039 -1503 c42 -53 42 -54 8 -118 -46 -85 -208 -226 -282 -244 -25
-7 -27 -5 -27 22 0 76 50 192 113 260 42 46 133 113 152 113 5 0 22 -15 36
-33z m287 14 c114 -60 205 -193 220 -323 8 -72 5 -108 -10 -108 -13 0 -81 52
-141 109 -66 62 -152 177 -166 223 -12 35 -10 41 16 78 15 22 32 40 36 40 4 0
24 -9 45 -19z m-153 -214 c19 -35 35 -69 35 -75 0 -6 -30 -12 -75 -14 -41 -2
-74 -1 -72 2 2 3 19 38 38 77 19 40 35 73 36 73 1 0 18 -29 38 -63z m60 -187
c49 -8 87 -22 129 -48 74 -46 57 -51 -72 -22 -114 25 -182 25 -296 0 -50 -11
-99 -20 -110 -20 -19 0 -18 3 9 26 17 14 46 32 65 41 42 18 157 42 185 37 11
-1 51 -8 90 -14z"/>
<path d="M1052 1089 c-57 -10 -101 -29 -121 -53 -20 -24 11 -32 43 -11 42 28
160 31 231 7 65 -23 90 -16 61 17 -16 18 -117 52 -147 50 -8 -1 -38 -5 -67
-10z"/>
<path d="M1584 1090 c-43 -17 -64 -58 -64 -126 0 -56 3 -65 31 -93 39 -40 78
-41 120 -3 26 23 32 37 36 84 4 57 -10 102 -39 125 -20 16 -61 22 -84 13z"/>
<path d="M595 1065 c-22 -21 -25 -33 -25 -94 0 -59 4 -74 24 -98 34 -39 98
-39 132 0 20 24 24 39 24 98 0 61 -3 73 -25 94 -18 19 -35 25 -65 25 -30 0
-47 -6 -65 -25z"/>
<path d="M6750 1800 l0 -130 160 0 160 0 0 130 0 130 -160 0 -160 0 0 -130z"/>
<path d="M2675 1896 c-97 -24 -156 -73 -197 -161 -21 -46 -23 -64 -23 -225 0
-168 1 -177 26 -230 33 -70 69 -106 139 -139 55 -26 56 -26 348 -29 l292 -3 0
-109 c0 -125 -10 -147 -76 -159 -39 -7 -349 0 -596 14 l-128 8 0 -125 0 -125
193 -14 c105 -7 311 -13 457 -14 258 0 266 1 318 24 69 31 127 98 150 170 24
78 24 322 -1 402 -22 73 -80 139 -149 170 -50 22 -67 24 -313 29 -284 5 -304
9 -325 66 -17 44 -12 126 10 162 11 17 21 33 22 34 2 1 152 5 333 8 l330 5 3
128 3 127 -383 -1 c-268 0 -398 -4 -433 -13z"/>
<path d="M4840 1255 l0 -655 390 0 c340 0 395 2 432 17 69 26 118 71 147 133
l26 55 0 305 0 305 -25 49 c-30 59 -88 108 -153 130 -63 21 -217 20 -370 -2
-65 -10 -121 -14 -123 -10 -3 5 -4 79 -3 166 l2 157 -162 3 -161 2 0 -655z
m648 89 c22 -15 22 -19 22 -238 0 -282 16 -261 -194 -261 l-151 0 -3 239 c-1
132 2 244 6 248 28 28 284 38 320 12z"/>
<path d="M6020 1353 c0 -354 4 -572 10 -595 16 -57 69 -119 129 -150 47 -25
64 -28 146 -28 50 0 120 3 154 6 l61 7 0 118 c0 66 -3 119 -7 120 -5 0 -36 1
-71 3 -105 4 -97 -42 -100 556 l-3 520 -159 0 -160 0 0 -557z"/>
<path d="M7798 1590 c-43 -11 -109 -35 -147 -55 -39 -19 -72 -31 -74 -27 -2 4
-7 24 -11 45 l-7 37 -144 0 -145 0 0 -495 0 -495 165 0 165 0 0 354 0 354 48
12 c26 6 98 14 160 17 166 8 152 45 152 -384 l0 -353 166 0 165 0 -3 408 c-3
405 -3 407 -27 455 -50 101 -146 148 -302 146 -46 0 -119 -9 -161 -19z"/>
<path d="M8647 1596 c-72 -20 -127 -65 -162 -132 l-30 -58 -3 -299 c-2 -253 0
-307 13 -347 24 -73 64 -121 126 -153 53 -26 58 -27 229 -27 96 0 256 7 355
15 99 8 188 15 198 15 15 0 17 12 17 116 l0 117 -77 -7 c-129 -10 -468 -19
-495 -13 -30 8 -48 44 -48 97 l0 40 318 0 c174 0 323 4 331 9 21 13 11 422
-12 474 -25 54 -80 112 -135 138 -45 23 -57 24 -312 26 -195 2 -278 -1 -313
-11z m431 -232 c20 -13 22 -24 22 -95 l0 -79 -162 2 -163 3 0 73 c0 105 10
112 164 112 89 0 122 -4 139 -16z"/>
<path d="M3653 1573 c3 -10 91 -223 197 -473 106 -250 194 -471 197 -491 4
-28 0 -41 -20 -65 -25 -28 -28 -29 -136 -32 l-111 -4 0 -119 c0 -106 2 -119
18 -120 9 0 67 -4 127 -8 125 -9 208 0 269 31 57 28 126 104 164 180 25 50
412 1095 412 1114 0 2 -77 3 -171 2 l-171 -3 -29 -95 c-101 -329 -163 -526
-168 -532 -3 -4 -59 137 -125 313 l-118 319 -170 0 c-158 0 -170 -1 -165 -17z"/>
<path d="M6610 1425 l0 -125 70 0 70 0 0 -350 0 -350 160 0 160 0 0 475 0 475
-230 0 -230 0 0 -125z"/>
</g>
</svg>
